PathFileType	4	(X/Y/Z)	2014001\dynamic\2014001_C3_02.trc
DataRate	CameraRate	NumFrames	NumMarkers	Units	OrigDataRate	OrigDataStartFrame	OrigNumFrames
100.000000	100.000000	4	52	mm	100.000000	46	187
Frame#	Time	L_IAS			L_IPS			R_IPS			R_IAS			L_FTC			L_FLE			L_FME			L_FAX			L_TTC			L_FAL			L_TAM			L_FCC			L_FM1			L_FM2			L_FM5			R_FTC			R_FLE			R_FME			R_FAX			R_TTC			R_FAL			R_TAM			R_FCC			R_FM1			R_FM2			R_FM5			CV7			TV10			SXS			SJN			L_SIA			L_SRS			L_SAA			L_SAE			L_HLE			L_HME			L_UOA			L_RSP			L_UHE			L_HM2			L_HM5			R_SIA			R_SRS			R_SAA			R_SAE			R_HLE			R_HME			R_UOA			R_RSP			R_UHE			R_HM2			R_HM5			
		X1	Y1	Z1	X2	Y2	Z2	X3	Y3	Z3	X4	Y4	Z4	X5	Y5	Z5	X6	Y6	Z6	X7	Y7	Z7	X8	Y8	Z8	X9	Y9	Z9	X10	Y10	Z10	X11	Y11	Z11	X12	Y12	Z12	X13	Y13	Z13	X14	Y14	Z14	X15	Y15	Z15	X16	Y16	Z16	X17	Y17	Z17	X18	Y18	Z18	X19	Y19	Z19	X20	Y20	Z20	X21	Y21	Z21	X22	Y22	Z22	X23	Y23	Z23	X24	Y24	Z24	X25	Y25	Z25	X26	Y26	Z26	X27	Y27	Z27	X28	Y28	Z28	X29	Y29	Z29	X30	Y30	Z30	X31	Y31	Z31	X32	Y32	Z32	X33	Y33	Z33	X34	Y34	Z34	X35	Y35	Z35	X36	Y36	Z36	X37	Y37	Z37	X38	Y38	Z38	X39	Y39	Z39	X40	Y40	Z40	X41	Y41	Z41	X42	Y42	Z42	X43	Y43	Z43	X44	Y44	Z44	X45	Y45	Z45	X46	Y46	Z46	X47	Y47	Z47	X48	Y48	Z48	X49	Y49	Z49	X50	Y50	Z50	X51	Y51	Z51	X52	Y52	Z52	

47	0.46	123.9752044677735	885.0883789062505	672.7122192382815	201.8975067138673	919.566284179688	847.5986328125005	290.9348144531251	917.094116210938	846.6896362304692	363.2809448242189	881.7993774414067	669.3877563476565	65.41004180908206	797.993286132813	741.6322021484377	72.98695373535159	464.7852172851565	613.1010742187502	185.8767395019532	451.0832519531252	577.4370727539065	69.80085754394534	406.8699340820315	635.872497558594	107.0061416625977	379.7665100097657	568.602722167969	105.892936706543	91.01567840576175	692.8077392578127	188.7412261962891	97.18746948242193	658.376647949219	156.7487945556641	53.90471649169925	733.7740478515627	151.1858978271485	41.00885391235353	555.5054321289065	94.71060943603518	53.54419326782229	560.8901977539065	62.64739608764651	40.60162353515626	611.3007812500002	419.271423339844	789.0321655273442	768.6405639648442	370.2388305664064	440.0955200195315	793.9686889648442	252.5869598388673	432.6763000488284	782.4387207031255	371.589569091797	375.6480102539064	820.3437500000005	319.7847900390626	364.7976989746095	760.4550781250002	309.8475036621095	69.76490783691409	887.0918579101567	229.0997314453126	87.25099945068362	847.6383666992192	253.1507568359376	33.76292037963869	930.765014648438	237.5092010498048	25.79432106018068	744.1989746093752	301.009002685547	35.64655685424806	738.1634521484377	347.9960021972657	22.14672088623048	798.7485961914067	261.9645080566407	1385.176635742188	812.6060180664067	258.6990661621095	1151.060668945313	872.0527954101567	231.5208282470704	1164.04638671875	633.809020996094	239.7322540283204	1324.036499023438	684.6184082031252	176.1544342041016	1191.987670898438	888.8695678710942	181.6218566894532	1323.434936523438	868.223510742188	65.15967559814456	1324.59912109375	816.167602539063	70.53424835205081	1336.140502929688	773.5500488281255	1.589041590690614	1060.780883789063	851.661743164063	80.7027282714844	1028.8798828125	862.0448608398442	35.35446929931642	1031.475341796875	880.285766601563	9.136585235595707	817.9032592773442	786.5131835937505	-45.29288482666017	825.7622680664067	850.2919311523442	-3.186188697814943	731.4923095703127	774.629760742188	-45.82687759399415	749.6173095703127	869.1224975585942	378.4595947265626	1192.034912109375	858.0680541992192	351.2924194335939	1313.449462890625	840.995239257813	443.1636352539065	1315.091064453125	753.9733886718752	423.953796386719	1322.906494140625	706.9538574218752	515.224060058594	1027.1171875	684.5244140625002	443.907409667969	998.845825195313	716.1760253906252	490.383239746094	993.6657104492192	711.0246582031252	478.4780883789065	861.574096679688	526.248474121094	545.1293945312502	842.2395629882817	570.732360839844	493.7979125976565	790.7670898437505	465.6439208984377	547.8511962890627	766.279235839844	549.0943603515627	
48	0.47	124.1910934448243	883.4319458007817	663.2296142578127	201.2521362304689	918.2764282226567	838.3796997070317	290.1523437500001	916.0552368164067	837.8688964843755	363.5379333496095	880.505249023438	661.039489746094	65.4186935424805	796.2927856445317	732.3240356445315	74.57301330566409	462.9179382324221	603.0557250976565	187.2468261718751	450.2117919921877	567.3499755859377	71.3776779174805	403.9958496093752	622.9711914062502	108.6773071289063	380.4080505371095	554.5437622070315	106.3622512817383	85.22308349609378	658.9436035156252	189.1407012939454	93.54393005371097	625.0444946289065	157.1850128173829	45.56474685668947	697.3205566406252	151.5091857910157	44.39673614501955	518.8034667968752	95.0265808105469	56.57583618164065	524.9363403320315	62.96878814697268	40.41903305053712	574.418640136719	419.2738342285159	788.4719848632817	761.2701416015627	370.2974548339845	439.9456787109377	790.694946289063	252.758758544922	432.1680908203127	778.5354003906255	371.506072998047	375.687469482422	817.7934570312505	320.1936645507814	364.156463623047	757.7841796875002	309.4456481933595	70.17669677734378	886.8354492187505	228.8813629150392	87.3788986206055	846.9535522460942	252.5068817138673	34.41389083862306	930.4490356445317	237.8010101318361	25.8149814605713	743.893493652344	301.3440246582032	35.47844314575197	738.0662841796877	347.9844055175782	22.08617591857911	798.7792358398442	261.4772338867189	1384.052612304688	802.4858398437505	258.3072509765626	1150.162963867188	862.512817382813	231.3510589599611	1162.266845703125	624.7064208984377	239.2288818359376	1322.552001953125	674.6512451171877	176.226058959961	1190.975952148438	879.3854980468755	181.4036865234376	1322.438354492188	858.3638305664067	64.91059875488284	1322.972412109375	806.516479492188	70.12243652343753	1334.503295898438	763.923034667969	2.081797599792481	1059.504516601563	843.9438476562505	81.04638671875003	1027.536743164063	853.4689331054692	36.02796936035158	1030.158935546875	872.294067382813	8.973937034606937	816.6049194335942	778.8480834960942	-44.90833663940431	824.455688476563	843.0370483398442	-3.474831581115724	730.2713623046877	766.8328247070315	-45.24293136596681	748.212341308594	861.8415527343755	378.3455810546876	1191.22900390625	848.1625976562505	350.9294433593751	1312.543334960938	830.9323120117192	442.7535705566409	1314.24560546875	743.952331542969	423.3422851562502	1321.985717773438	696.8276367187502	515.766784667969	1026.7490234375	672.4277954101565	444.5659179687502	997.9340820312505	703.701354980469	491.2227478027346	992.8474121093755	698.5413818359377	478.4118957519534	864.377075195313	510.8803405761721	544.964538574219	843.8666992187505	554.9495849609377	493.6404724121096	794.9978637695317	448.6823425292971	547.3580322265627	768.3508300781255	531.687683105469	
49	0.48	124.3563232421876	881.5686035156255	653.6446533203127	200.5049438476564	916.834838867188	829.0557250976567	289.2849426269532	914.8859863281255	828.9403686523442	363.737518310547	879.1623535156255	652.5503540039065	65.40145111083987	794.3875122070317	722.978454589844	76.14663696289065	460.6733093261721	593.5750732421877	188.7050781250001	448.9178466796877	557.8762207031252	72.9390563964844	400.9532775878909	610.4862060546877	110.3525848388672	380.9388427734376	541.0723876953127	106.8728637695313	80.59191894531253	625.1483154296877	189.5791473388672	91.00510406494143	591.8536376953127	157.7540740966797	38.45871734619142	660.7093505859377	152.0194244384766	49.11932754516604	482.7116394042971	95.50777435302737	60.81924438476565	489.4858703613284	63.43415069580081	41.47888183593751	537.8378906250002	419.2497558593752	787.8562011718755	753.7505493164065	370.3176269531251	439.7693786621096	787.1465454101567	252.9132385253907	431.6109619140627	774.3250122070317	371.3723144531251	375.7064819335939	814.9834594726567	320.5559387207032	363.4543762207032	754.8648681640627	309.0332031250001	70.63985443115237	886.531616210938	228.6405792236329	87.52767181396487	846.2359008789067	251.8739471435548	35.15050506591798	930.121215820313	238.0824432373048	25.80985069274904	743.5898437500002	301.6737060546876	35.29111099243165	737.9614257812502	347.953582763672	22.01672744750977	798.8125610351567	260.8948669433595	1382.792114257813	792.3256835937505	257.7726135253907	1149.13916015625	852.917114257813	231.1389160156251	1160.351928710938	615.565368652344	238.6828460693361	1320.943237304688	664.6355590820315	176.1275787353516	1189.82666015625	869.8073120117192	181.0529479980469	1321.3125	848.4216918945317	64.5810470581055	1321.252075195313	796.7630004882817	69.61851501464847	1332.765991210938	754.1721191406252	2.448622226715089	1058.0986328125	835.9001464843755	81.30013275146487	1026.053100585938	844.5988769531255	36.59240341186525	1028.712646484375	863.9748535156255	8.734923362731937	815.160522460938	770.8955688476567	-44.64691162109376	823.0393676757817	835.395874023438	-3.824719667434694	728.867858886719	758.8404541015627	-44.83111572265626	746.7145996093752	854.2322387695317	378.0750732421876	1190.281982421875	838.2830200195317	350.4440307617189	1311.500732421875	820.870727539063	442.2720642089846	1313.25146484375	733.918151855469	422.6600036621096	1320.898803710938	686.7175903320315	516.1544189453127	1026.192504882813	660.4974365234377	445.0643615722659	996.8806152343755	691.417419433594	491.912048339844	991.8866577148442	686.2492675781252	478.1797180175784	866.9533691406255	495.8699340820315	544.6216430664065	845.3008422851567	539.508728027344	493.3229675292971	799.013061523438	432.1425476074221	546.6878662109377	770.249145507813	514.6653442382815	
50	0.49	124.4744720458985	879.5199584960942	643.9476318359377	199.6573791503907	915.2462768554692	819.6173706054692	288.3374633789064	913.590454101563	819.8937988281255	363.8816223144532	877.7744140625005	643.913513183594	65.34733581542972	792.2968139648442	713.5570068359377	77.69223785400393	458.118347167969	584.534362792969	190.2567749023438	447.2669372558596	548.920837402344	74.47267913818362	397.8102111816409	598.3489379882815	112.0186614990235	381.3819274902345	528.1206054687502	107.4412155151368	77.13422393798831	591.7241210937502	190.087631225586	89.57187652587893	559.114196777344	158.4608154296876	32.638484954834	624.3095703125002	152.7504882812501	55.06177520751956	447.5401306152346	96.19097137451178	66.16596984863284	454.8177185058596	64.07521820068362	43.70772171020509	501.859802246094	419.1991271972659	787.1865844726567	746.0704345703127	370.3081054687501	439.5639953613284	783.3153686523442	253.059295654297	430.9979553222659	769.8088989257817	371.2015380859376	375.7055969238282	811.9006958007817	320.8752746582032	362.692108154297	751.691101074219	308.6259155273439	71.16279602050784	886.1758422851567	228.3816833496095	87.72033691406253	845.4829711914067	251.2704010009767	35.98059463500978	929.783081054688	238.3462219238282	25.78590965270998	743.3011474609377	301.9873352050782	35.09209060668947	737.8518066406252	347.9039916992189	21.93968391418458	798.848999023438	260.2153320312501	1381.402099609375	782.1264038085942	257.1037902832032	1147.992553710938	843.2598266601567	230.8811187744142	1158.323852539063	606.356628417969	238.0910186767579	1319.22216796875	654.5701293945315	175.8583526611329	1188.537231445313	860.1276855468755	180.5711669921876	1320.054321289063	838.3980102539067	64.17115783691409	1319.448608398438	786.9127807617192	69.02358245849612	1330.939697265625	744.2990722656252	2.672015190124513	1056.569213867188	827.5290527343755	81.45087432861331	1024.438232421875	835.442260742188	37.02779769897462	1027.144897460938	855.3312377929692	8.402943611145023	813.5775756835942	762.6484985351565	-44.5197219848633	821.515014648438	827.3854980468755	-4.249406814575197	727.2927856445315	750.6394042968752	-44.58827972412111	745.1248168945315	846.3052368164067	377.6492004394532	1189.198364257813	828.4224243164067	349.8348999023439	1310.327270507813	810.810180664063	441.7167053222659	1312.119262695313	723.8619384765627	421.9084777832034	1319.659912109375	676.626647949219	516.3853759765627	1025.455688476563	648.738220214844	445.3964843750002	995.6923217773442	679.327331542969	492.4357604980471	990.7839355468755	674.1441650390627	477.7789306640627	869.2863159179692	481.2346496582034	544.1044921875002	846.5366821289067	524.4224243164065	492.8406372070315	802.7857055664067	416.0444335937502	545.8544921875002	771.9663696289067	498.0480041503909	
